PathFileType	3	(X/Y/Z)	results
DataRate	CameraRate	NumFrames	NumMarkers	Units	OrigDataRate	OrigDataStartFrame	OrigNumFrames
30.0	30.0	4	85	mm	30.0	1	173
Frame#	Time	head			nose			neck			shoulder_r			elbow_r			wrist_r			shoulder_l			elbow_l			wrist_l			hip_r			knee_r			ankle_r			hip_l			knee_l			ankle_l			heel_r			heel_l			mtoe_r			ltoe_r			mtoe_l			ltoe_l			asis_l			asis_r			psi_r			psi_l			mhnd_r			lhnd_r			mhnd_l			lhnd_l			l_lat_knee			r_med_wrist			l_lat_ankle			r_med_ankle			r_lat_knee			xiphoid			l_med_ankle			r_med_knee			l_med_elbow			navel			r_lat_elbow			r_lat_wrist			l_med_wrist			l_lat_elbow			l_med_knee			r_med_elbow			r_lat_ankle			l_lat_wrist			chin			T10			r_eye			l_eye			l_ear			r_ear			spinal_cord_8			spinal_cord_12			spinal_cord_27			spinal_cord_33			up_arm_r_0			up_arm_r_5			up_arm_l_0			up_arm_l_5			front_torso_11			front_torso_7			front_torso_4			front_torso_1			front_torso_10			thigh_r_2			thigh_r_3			thigh_l_1			thigh_l_5			shank_l_0			shank_l_4			shank_r_1			shank_r_2			foot_r_1			foot_r_3			foot_r_5			foot_r_6			foot_r_7			foot_l_1			foot_l_7			foot_l_0			foot_l_4			foot_l_5			foot_l_6			
		X1	Y1	Z1	X2	Y2	Z2	X3	Y3	Z3	X4	Y4	Z4	X5	Y5	Z5	X6	Y6	Z6	X7	Y7	Z7	X8	Y8	Z8	X9	Y9	Z9	X10	Y10	Z10	X11	Y11	Z11	X12	Y12	Z12	X13	Y13	Z13	X14	Y14	Z14	X15	Y15	Z15	X16	Y16	Z16	X17	Y17	Z17	X18	Y18	Z18	X19	Y19	Z19	X20	Y20	Z20	X21	Y21	Z21	X22	Y22	Z22	X23	Y23	Z23	X24	Y24	Z24	X25	Y25	Z25	X26	Y26	Z26	X27	Y27	Z27	X28	Y28	Z28	X29	Y29	Z29	X30	Y30	Z30	X31	Y31	Z31	X32	Y32	Z32	X33	Y33	Z33	X34	Y34	Z34	X35	Y35	Z35	X36	Y36	Z36	X37	Y37	Z37	X38	Y38	Z38	X39	Y39	Z39	X40	Y40	Z40	X41	Y41	Z41	X42	Y42	Z42	X43	Y43	Z43	X44	Y44	Z44	X45	Y45	Z45	X46	Y46	Z46	X47	Y47	Z47	X48	Y48	Z48	X49	Y49	Z49	X50	Y50	Z50	X51	Y51	Z51	X52	Y52	Z52	X53	Y53	Z53	X54	Y54	Z54	X55	Y55	Z55	X56	Y56	Z56	X57	Y57	Z57	X58	Y58	Z58	X59	Y59	Z59	X60	Y60	Z60	X61	Y61	Z61	X62	Y62	Z62	X63	Y63	Z63	X64	Y64	Z64	X65	Y65	Z65	X66	Y66	Z66	X67	Y67	Z67	X68	Y68	Z68	X69	Y69	Z69	X70	Y70	Z70	X71	Y71	Z71	X72	Y72	Z72	X73	Y73	Z73	X74	Y74	Z74	X75	Y75	Z75	X76	Y76	Z76	X77	Y77	Z77	X78	Y78	Z78	X79	Y79	Z79	X80	Y80	Z80	X81	Y81	Z81	X82	Y82	Z82	X83	Y83	Z83	X84	Y84	Z84	X85	Y85	Z85	
1	0.03333333333333333	-203.0791931403208	1624.0588835886497	-246.0978161216685	-182.85206975473767	1446.3362875622583	-317.3568866109036	-246.5884077790343	1350.1717292503563	-184.76067525533978	-68.93829048807858	1309.7007700151105	-151.05468076555707	47.14745870400444	1086.3433680161984	-64.99606727769854	-1.4320165252311445	911.7542149481216	-197.97049878452592	-387.27264156422456	1308.588936085497	-236.72971158468727	-553.8359783756224	1101.0557463631098	-179.52191839009024	-462.11408240156453	906.0856095655438	-291.7650898714458	-148.11236410162994	864.5647310284056	-191.15388615097672	-131.96742677579815	488.62920234994795	-163.09105020344478	-74.82964139818986	92.01900695822901	-127.59752347157999	-319.8774573467807	845.6282170321633	-157.9457832541657	-322.59169684946437	470.4817842461225	-77.5916878376937	-375.5016236531219	74.37007755887792	-63.3780914921207	-77.89176260756363	34.562392904720866	-112.93409414696943	-389.50865476419364	6.994081882514324	-42.30150869048998	21.60293181145316	28.092211333432445	-318.16209895551816	54.65056635244547	31.315623784481787	-234.09363462140684	-384.50092856379916	36.59241405431097	-256.9605972893385	-460.2556581589256	35.87239736552019	-201.73073038040118	-372.42640011989187	899.5762004415245	-191.81696726990705	-119.97312843325186	924.4701331863075	-237.12672924809522	-178.96620081235616	926.9758849128996	-81.67963177841354	-265.77754828646533	917.4536910951078	-71.03252095273434	-2.0819618848534303	841.0392676419682	-217.48104908379398	-24.7346950882388	858.6581373377975	-262.7079367039261	-457.14285166882473	832.7102867881258	-311.91367972438076	-414.7999855259211	849.2383263793146	-340.01444337563566	-372.285906516731	463.56672165742793	-80.29322895504215	18.212534703300246	903.3629473478088	-179.439156804504	-431.5605087277925	66.18839900442185	-65.06755514800469	-100.96155354698894	76.05521817174687	-152.84685175016486	-90.92116617820353	481.7144995471645	-153.6974344782722	-206.7537548877361	1175.915808625077	-265.35153683156034	-344.8446541349204	58.02015636230834	-73.33870187025332	-168.44121071821527	480.3607377297298	-180.54023642913282	-539.1464030093765	1110.26154245433	-146.35113654541516	-191.33573047716683	954.8712987917073	-266.6553528026019	73.41152556700294	1096.6039313742463	-94.30981259185053	-23.5813775743657	932.5242583300617	-205.08011559914067	-494.78111440499384	900.0385113569557	-285.53897733594505	-566.1829027090532	1115.752602488247	-216.2292214082623	-279.5463529555496	463.38114046499004	-100.76363672724543	18.029343065716922	1087.597548228191	-41.408945984020924	-26.253965018361775	81.3558667248977	-110.93229677887027	-442.0485318087725	930.2165694935853	-300.34014377211065	-198.73199805863618	1383.4041936410015	-289.1414075091242	-264.52620613306976	1195.4910611050068	-77.32771140002463	-151.9739094269719	1472.722377148915	-309.8403592794248	-208.9100147337194	1475.6053641698334	-335.4690699386859	-288.79260307717715	1493.6573833486652	-271.68195481766844	-148.86324575628277	1484.2724686098527	-205.52581141748192	-264.7081956316366	1411.7334409421644	-141.35715661301313	-273.1641517744485	1295.9563506196073	-84.39128020453268	-238.51547951678054	1043.3571930837174	-79.59035824838081	-260.2304657029194	1185.2459426581036	-89.31794760883547	-24.67709392572877	1177.3905116959934	-147.9874778604913	25.890568727676673	1198.451370357296	-76.7530079998364	-437.14327871822246	1272.9531006159455	-250.02316549479787	-506.2917273724886	1169.5476772135885	-153.51782299292412	-157.0394626676234	988.3530136616844	-216.06418178255342	-191.29237717793913	1087.2859040487028	-289.1029348978074	-271.5983328599303	1216.0457158162828	-292.83235331267764	-273.8792666287337	1012.6286412609257	-256.93596069674015	-129.4904728321148	1268.609556856622	-260.5200851736726	-154.9619069902284	658.9918042826342	-183.63355225584388	-65.23997136270054	630.24351644232	-152.18475279159253	-275.7194858142986	576.0130276776886	-104.05640952080975	-420.03612021365717	740.1751924423199	-152.70970468458967	-430.1063345080863	178.4975797574722	-84.56628699440125	-293.4022359295229	310.8090428695019	-71.28884157872223	-52.76978257919036	328.6458085565001	-123.79553142267349	-138.05984214509365	274.6350866102066	-164.99323283729518	35.26294738059102	23.54393263787962	-291.0234038771815	49.30507247833543	28.207026986577354	-265.1301256263196	-27.691847858728366	36.72417832628893	-249.1745779735852	-1.2282892150664444	47.93059137591408	-220.90350694335686	22.878342671199565	38.14303430762308	-195.4718915920217	-432.70206695258315	33.46325817604161	-231.60077398462238	-440.1404226811	50.23763213761698	-127.0347973668445	-446.3141698637734	35.95400900997505	-223.35134686332046	-415.97690054342024	30.28124071557573	-241.12826017427994	-417.38620781323556	37.87050968793777	-183.34856990045841	-385.64960551129326	36.9886256616102	-155.2331037951269	
2	0.06666666666666667	-205.60904371363316	1625.5473122175727	-246.67720071110995	-180.95343258677892	1448.3883542653846	-317.94512647762474	-246.40977518165874	1354.0895991101988	-173.22414049186767	-70.21375072103545	1306.0948727420555	-149.93458157436226	47.938460591330696	1085.6763640827612	-59.235898281526865	-5.339117962589644	909.9323747827098	-188.84719048044923	-390.6307517950229	1318.8775225661373	-237.34653958850282	-550.863736196373	1120.632355489489	-141.8984068205968	-460.40287244019527	906.0526628463361	-211.16006736802322	-151.84751278794005	860.7602105733528	-197.73425280924812	-132.59137952838287	486.0958674318609	-157.83012899261468	-70.96177375549293	91.12467472823144	-112.8444349006999	-322.7465095600688	848.9728221382276	-157.49487788853372	-328.5129410018	472.39158629929136	-83.98748959779526	-385.2465682875608	76.96693138031252	-65.91517188998972	-73.42499640630353	33.88584874078304	-97.20246529683484	-399.4789117069782	11.26718289604368	-42.768780380941344	24.955440844440872	24.28931811054883	-302.8448432032675	58.428475389801754	26.02442057986304	-218.90088207546282	-389.0563949415797	24.43920968974528	-258.8648973325411	-466.45064530170856	22.90994112859378	-205.9741890020283	-374.83323894296603	903.0265121776172	-191.90715218790336	-123.61248600063391	917.575507671072	-247.42108579496713	-176.60956682149993	929.027746494094	-90.22561148798414	-263.2125397806748	922.8415647261473	-76.01647977366905	-7.251875819294937	838.9721549100105	-207.35870925829698	-30.524627339515686	856.2639368842716	-252.39664401977458	-455.9212743819102	830.0647957478884	-215.67406043656067	-413.445872124155	840.1395355984715	-246.49754407635072	-378.37095607369065	466.4109021611592	-84.69481391144014	14.541959059301627	901.5412755168023	-170.5697554839764	-441.41535867387137	69.42388203637734	-65.16541168712224	-95.78892474063538	74.30856715601087	-138.84595530955605	-91.74974191895393	479.8794950516939	-147.07601441356067	-218.5168571141967	1183.4246639162127	-265.648582229136	-355.2326871646545	60.230567206388194	-77.11537351570887	-168.41878139746726	476.8365059170558	-176.13327849133526	-536.7372990714207	1136.4658112532309	-111.06698572079715	-206.19226815010268	962.5639639151963	-278.6388263458982	73.7231632725293	1095.167331426443	-89.22667485491517	-27.352938413234217	930.8882910765459	-195.83123155104383	-493.115093586642	901.6400966140567	-203.88636811153626	-563.3911619302252	1127.6553589190742	-180.75212276434152	-286.57609242592633	465.1094436596442	-109.01982250596501	19.173440070797813	1087.5210660083706	-35.25756250711429	-22.95633101506178	81.52728223612048	-94.0190212064289	-440.16597081360885	927.7536103118462	-224.50164855973318	-194.8878086251689	1385.0661867695185	-289.57489388710843	-253.63374421594554	1194.7777262910106	-71.45353137187797	-150.76767877152264	1475.6271191707704	-310.66126451702877	-207.93693859978396	1476.9072335128023	-335.8981333735257	-287.848227629231	1492.796560920703	-271.57384144176876	-147.26027862896325	1487.3547498719622	-206.37911571270953	-258.53522362348224	1413.7273343924671	-125.28302536851876	-261.75031669544825	1295.5232196310149	-72.95330778058437	-230.01892121376883	1042.7178019461924	-83.55769643233369	-250.90233012390917	1185.062098902492	-84.31150802773915	-25.444715285989947	1174.066021026982	-143.72318138776384	26.111871865921774	1197.331735874836	-73.89752131946088	-439.2225312058156	1279.7315841916613	-243.68243882172257	-505.75444987906013	1194.3579187437535	-129.3482282049443	-165.7849863152066	993.4297767852391	-230.98088920983508	-207.07860255115705	1095.8655851535866	-294.99167604684465	-285.61196153563174	1225.258258077126	-283.4985508647487	-286.28405069962616	1020.4302710996043	-256.7160205651895	-140.03715638313602	1275.2179424458163	-265.78725555695235	-156.74327180221385	655.4383929751613	-184.2182388869228	-67.69702844701868	628.6720944056588	-149.29190813978983	-280.97712872656547	577.706639630396	-110.41708658201935	-424.37814827116443	745.0767322325931	-150.00307060115819	-439.5278701488953	181.63890395993548	-85.16274874643454	-300.89002803206307	312.4174534317887	-78.29659064919791	-52.66254027762321	328.10211796293	-112.43798521214549	-135.35931420132565	272.0315007027975	-156.09726155112384	38.54093887348206	19.15232056089951	-275.77387841672436	52.84906002753104	23.20948862249798	-249.92422385224089	-23.711207067061938	34.562191652528746	-233.63653692159008	3.264310636766063	44.685120490568465	-205.44070667894593	27.085731742902823	33.925679583357734	-180.13325004080076	-437.7934906872042	20.052439265512348	-234.7461548267938	-449.87272602928647	44.328810745716574	-132.1035609143145	-451.8123082851731	22.25444073053895	-227.11921730809445	-420.5815451069308	17.27292865675268	-243.50130586743927	-424.4538905202951	29.197712537371537	-186.57257648539093	-393.7068727893189	32.626232323914	-157.56679719656805	
3	0.1	-207.76194584829355	1626.536645058681	-247.19035670661737	-179.3753422078387	1449.8153433962384	-318.1558064571616	-244.99481704034258	1357.1665254932548	-163.04100459023178	-69.73253666108037	1305.8536926216404	-148.63772321546696	48.98398657895617	1087.1332323152599	-54.62568940167158	-5.625735565725189	909.0864068680883	-180.48530728050238	-396.8583297910481	1321.485782937908	-237.31739652970037	-548.6651114277865	1132.3627445090065	-113.73228823259542	-463.57383040062837	909.9102308912072	-161.6816684831326	-154.34673038237585	857.2739261736075	-201.3969590309279	-133.53062773132288	483.6614885108875	-153.65951721169148	-68.5353320265702	89.68349187633734	-104.86286004689455	-323.7675064797927	854.2069255518738	-153.9437078084287	-331.8392260145812	475.3682483433152	-92.71716161098844	-391.2308366671627	80.60333159341133	-69.49501834946884	-70.27144551899629	32.19563190574876	-88.86256672738891	-404.6988577063546	15.714651895434507	-44.715475483688536	26.468099025933682	25.86575691593087	-295.40792404303886	60.631868027602344	27.32300240731634	-211.73740022933976	-392.2335729978364	19.640016942592972	-261.0690543621544	-469.8803960452669	12.432832105046312	-209.0242367892179	-374.9997782281343	909.0865880367685	-188.33135652398877	-125.9139096480483	910.9567023572953	-254.34703306708428	-171.83822516742546	930.4855808273238	-95.7284917739245	-257.9571179993755	928.4882634448385	-77.84581258480047	-7.799154083848932	837.7957770577501	-197.64951794260986	-31.414688243116196	854.2815638302676	-242.81109049727178	-459.98530456757766	833.8557717367712	-157.50332840339735	-418.974552942219	839.6693727467213	-191.26821575886916	-381.65644616154344	470.5414288758413	-89.1578428036899	14.391983235949569	901.0050642221821	-162.21743286918934	-447.1870995333378	73.70077390875434	-63.69466571453133	-93.31945743514946	72.40140918098764	-130.5985300194176	-92.66041578147534	477.7957325980596	-142.75211417083943	-226.3691971400285	1189.693823040757	-263.30462027467394	-362.53892559579	63.53388007289706	-83.34390011444128	-169.26462915921752	473.8107323581707	-171.86637629410663	-533.3171346398981	1151.5139686736152	-85.47452300220048	-215.7433422927107	969.4013288213887	-284.7148734179513	74.53334880387483	1096.0168692189804	-85.00145471243025	-27.664094665185136	929.9451138052108	-187.67979276160057	-495.93050849056544	906.843945426533	-152.4021140544211	-563.2153348260488	1135.1194968721143	-152.4177057797217	-292.38479745592986	468.2396893304194	-121.48386269344851	20.414330221882743	1089.4689931822063	-30.457344939076066	-20.385564930103435	80.66786379665464	-86.1186061274203	-443.8207772270789	929.6209469715766	-178.40786527026708	-191.8866286472919	1386.2613136049163	-289.6411288663581	-242.75283493954157	1194.562179489263	-66.37396984056637	-149.7770382978488	1477.7175260517479	-310.9729587810927	-206.99997397757198	1477.7061414241841	-336.12048379459	-287.1369579734431	1491.9824534554791	-271.69882530013814	-146.3622910471492	1489.7233347172387	-206.71939387143988	-252.37647563975847	1415.1674721383379	-112.213474713409	-250.79247137015503	1295.2910033003272	-63.75656537907049	-220.67872689941038	1043.0186012770514	-85.70448783307498	-241.27992866383292	1185.2813899194732	-79.74853877723295	-25.012053366685826	1173.9305307632526	-140.2220562505353	27.122177330985153	1198.5021696848926	-71.27820576062516	-445.00486877742884	1281.2917994465888	-237.0651836208231	-504.30022056994727	1207.551312305156	-111.2324673517146	-170.91196409292857	998.7266465974822	-240.14022740121433	-217.94561147395999	1103.1700533418903	-296.4878024250851	-294.78654962598756	1232.0047304486156	-273.2684052568606	-293.26917938369047	1026.4014393165269	-253.3374206962275	-148.09500727149702	1281.5474935796494	-267.90277743812334	-158.36173165809066	652.2567072155183	-183.63408859999177	-69.25938842500014	626.61572796842	-148.0134571083279	-284.3302778809648	580.6818641991667	-119.66416297003141	-426.7318117165461	752.1795026579027	-140.9717578416373	-445.82392611015814	185.90139649823578	-83.81503590126903	-305.64559673224625	315.085439257938	-89.48455659238687	-52.15818276000827	326.79268459170714	-106.94983418378024	-134.55524169480597	269.61081365105366	-149.72554297259416	40.35716658606192	20.679968497069105	-268.5008053607749	54.82722156923114	24.708402349448118	-242.73693891524337	-21.744556081674187	34.81527590929924	-225.69988859953816	5.324803781549148	45.06898139467618	-197.64158560138762	29.51339529442726	34.42416650932575	-172.63572648151342	-440.6208826728812	11.264568143436048	-237.30390937299745	-456.8447224092188	38.97119424496113	-136.11160671090596	-454.91493118424984	12.328570622484586	-229.9490260231093	-423.0728514578315	9.91169741535157	-245.72208975213826	-429.09789562522786	24.0489561411647	-189.4912039583443	-399.35513096224014	32.08933600366259	-160.35035082573256	
4	0.13333333333333333	-208.58081150427648	1626.6176029137048	-246.40907604299588	-178.90857382186977	1450.5232317387645	-318.3996555463333	-243.62937126809	1359.4735200448151	-153.68203333087803	-65.86803942083667	1309.0312200307178	-147.1637891197338	50.81753704326501	1090.4970354770064	-50.2215301439487	-3.2648057341194	911.1503441486001	-174.45277309999008	-400.8973312972566	1319.5110450584225	-234.5645938431592	-551.5514743550681	1139.4504999089277	-96.84157155467472	-473.13987706642286	915.118180895109	-147.3531746242286	-152.41222021082754	856.0327698510547	-201.19127034143023	-134.058679907872	482.7076503645052	-150.6884785264288	-68.63341289267066	88.31640240993666	-105.97559426240188	-320.8611571586494	858.5342412729224	-150.36494645582215	-328.290309154779	478.3233866280707	-98.13365291894469	-392.2843201953322	84.37407919204782	-73.34090051538034	-70.19827641719948	30.794748479250234	-89.92071433520366	-404.09234997509384	18.917598976103946	-48.2737454202321	28.865320777761923	26.739595817204684	-295.41901328796547	61.88209270949499	33.9493674218656	-211.58611284490036	-394.83734662993453	27.075952649889416	-264.67025436978287	-469.838314166904	7.3641300258243065	-211.98311555775743	-371.32719663864225	913.9708927722617	-184.99138053271247	-123.66323828133147	907.7398560809113	-255.90734993206277	-165.84512066084366	932.0350423483121	-96.90831152194038	-251.607604444696	932.7285961949311	-77.29814699956297	-5.508864820270438	839.6704164025905	-190.8012257089042	-28.691620082046427	855.6957064749198	-236.3511125508792	-470.41326405902004	839.0736163087944	-142.41287310146132	-431.64778576473714	843.8282954195089	-178.88722083897486	-376.8684216283191	474.4863260844931	-86.19379914176878	16.57315342460919	903.2247221660607	-155.92246567951054	-446.5693277863467	78.45297278206043	-58.15962267215429	-95.34540556756156	71.18709313952576	-129.8147254283421	-93.13096661725037	476.5586830654195	-140.0907869746976	-230.8661194108892	1194.4236958347901	-258.7651782390926	-366.80676854036204	67.08142012432455	-92.26817623891608	-169.98749958734916	472.9319384848043	-168.58018950756892	-533.7352643666351	1158.6520669931367	-70.10744434880827	-220.1115283172341	974.7617499173506	-285.8402410544968	76.65863237132514	1098.9549575477606	-80.4717760841506	-25.178273641742063	931.9878971317588	-182.07719820349047	-504.8526546515186	912.674436189184	-135.9166234127571	-568.411322470464	1141.8554859910073	-134.60175930311064	-294.5239739861282	471.2001245295745	-133.3985621568443	22.071166505131202	1093.2185686962678	-26.304394967003542	-19.320338910632035	78.9624427208882	-90.7521633517784	-454.2476019708497	934.3098336693271	-165.60758511996863	-190.68641938608855	1386.714499051073	-290.14258889301715	-233.33229345191467	1194.8099175979783	-61.10998761459862	-149.5352339405585	1478.6638366020904	-311.22344804025687	-206.8804550144248	1478.244465880941	-336.0873226358945	-286.82390836204837	1491.453424711874	-271.19921089110557	-145.71161219565374	1490.1826485156384	-206.92914030622023	-247.84068913642906	1416.2726933350345	-101.16389166399425	-241.9294793472791	1295.379061513313	-55.65854805892215	-211.53206659385773	1043.9363673611651	-85.3651564836018	-232.7377272678981	1185.8393668666902	-74.76126274945683	-21.988088629920224	1176.934370268628	-137.1919330847732	29.740288389334193	1201.8335461053432	-68.0601457238583	-450.40492478732455	1281.2468932554198	-230.2562286963952	-504.3279750146005	1212.8857255369317	-99.0825801458279	-172.46638546902048	1003.5085533964008	-243.8844613073826	-224.15296142767247	1108.7312888738054	-294.4048751391634	-300.13488367742156	1236.315885345459	-262.92531922533	-295.6562818267238	1030.3464827737491	-247.79894450860655	-153.81019922075942	1287.068431036551	-266.79181161741496	-157.83283195656895	651.1943771982546	-181.81216473207485	-68.65136520826	625.1519431533883	-146.68419308722233	-283.3318472445237	583.3421779325151	-130.18523997369306	-422.7341372380064	758.4169589506452	-122.47336400939437	-445.9800690399359	191.0679829545912	-75.85650108815916	-305.78493422164905	317.51682827757475	-102.81272644625511	-50.68549754505297	325.29183550962705	-109.69744745275756	-136.38930883483346	268.67643834900116	-146.28100226245002	42.885870111185454	23.693886665585474	-268.25397165079465	56.66185201827345	29.836153733560508	-242.52689520391922	-20.684254847757046	33.47478713217424	-226.40277634757666	5.05039658485501	47.03162930106321	-198.49047023053657	29.842083019561997	39.428351349913775	-172.97076251739878	-441.07291618154386	11.049214497823211	-240.55225758366814	-460.2416018878165	34.80782741647223	-138.87216108365317	-455.27513076960213	9.80641299529411	-233.04900639293098	-423.6234801125672	12.522211946070398	-249.1532388660086	-431.12632031280395	24.944058938715095	-192.69545937659373	-402.6580347310229	37.17730503802274	-163.74077952452978	
